<svg xmlns="http://www.w3.org/2000/svg" width="184" height="65" viewBox="0 0 184 65" fill="none">
    <path d="M140.413 3.44727C150.994 0.492448 163.192 -0.61253 171.419 6.53027V6.53125C176.552 11.0397 180.273 16.8097 181.831 23.4785C183.597 31.0366 183.024 38.2895 180.184 44.2803C177.365 50.2256 172.277 55.0061 164.838 57.6455L164.729 57.6846C151.652 62.2794 137.006 63.9414 123.095 63.6436L121.751 63.6084L120.203 63.5479C116.599 63.3787 113.033 63.0221 109.344 62.7881C92.6515 61.7276 71.6333 59.9089 55.126 60.6338C45.3207 60.8825 39.996 61.0668 32.5723 59.8535L32.5479 59.8496L32.5244 59.8467L31.5352 59.7197C26.5463 59.0401 20.9266 57.7061 15.9248 55.4189C10.5815 52.9756 6.05374 49.4967 3.66016 44.6768L3.65918 44.6758C0.27213 37.8615 0.239573 29.3081 4.14941 22.7998L4.54004 22.1758C7.02737 18.3676 11.4602 12.8831 16.8779 9.79004C23.4506 6.03849 31.231 3.84167 36.2646 2.85254L36.2744 2.85059L36.2832 2.84863C50.0173 -0.0762756 59.997 1.77322 69.4658 4.29688C78.9248 6.8179 88.0811 10.0931 99.7959 9.73242C107.09 9.50819 115.27 8.55517 120.681 7.70996L121.726 7.54297C127.423 6.60051 134.842 5.00094 140.412 3.44727H140.413Z" stroke="#FF5A2D" stroke-width="2.33083"/>
</svg>
