<svg width="16" height="16" viewBox="0 0 16 16" fill="none" xmlns="http://www.w3.org/2000/svg">
    <rect x="1" y="1" width="14" height="14" rx="2" fill="#009E97" stroke="#009E97" stroke-width="2"/>
    <path fill-rule="evenodd" clip-rule="evenodd" d="M13.5682 3.98109C13.7322 4.14518 13.8244 4.3677 13.8244 4.59971C13.8244 4.83173 13.7322 5.05425 13.5682 5.21834L7.00977 11.7768C6.9231 11.8634 6.8202 11.9322 6.70695 11.9791C6.5937 12.0261 6.47232 12.0502 6.34973 12.0502C6.22715 12.0502 6.10576 12.0261 5.99251 11.9791C5.87926 11.9322 5.77636 11.8634 5.68969 11.7768L2.43119 8.51884C2.34762 8.43812 2.28096 8.34157 2.2351 8.23482C2.18924 8.12806 2.16511 8.01325 2.1641 7.89707C2.16309 7.78088 2.18523 7.66566 2.22922 7.55813C2.27322 7.4506 2.33819 7.3529 2.42034 7.27074C2.5025 7.18859 2.6002 7.12362 2.70773 7.07962C2.81526 7.03562 2.93048 7.01349 3.04667 7.01449C3.16285 7.0155 3.27767 7.03964 3.38442 7.0855C3.49117 7.13136 3.58772 7.19802 3.66844 7.28159L6.34944 9.96259L12.3304 3.98109C12.4116 3.89978 12.5081 3.83528 12.6143 3.79127C12.7205 3.74726 12.8343 3.72461 12.9493 3.72461C13.0642 3.72461 13.1781 3.74726 13.2843 3.79127C13.3904 3.83528 13.4869 3.89978 13.5682 3.98109Z" fill="white"/>
</svg>
