<svg width="40" height="40" viewBox="0 0 40 40" fill="none" xmlns="http://www.w3.org/2000/svg">
<path d="M11.3405 20.7927C10.4276 19.4198 11.5654 18.8647 12.2399 18.2203C14.4075 16.7285 15.7251 15.4399 17.3216 13.8439L17.2541 13.9133C17.8972 13.041 18.6977 12.6743 19.5881 13.3483C20.5325 14.062 20.2896 15.0483 19.8534 15.9851C19.2058 17.3728 19.8308 17.0248 21 17C22.9382 16.9603 25 17 27 17C29 17 29.8953 18.2749 29.9942 19.7419C30 22 28.8438 22.8612 27 23C24.8549 23.1586 22.9726 22.9613 20.5 23C21.0351 23.6939 21.5263 24.0093 21.6207 24.837C21.6207 25.0402 21.6207 25.2484 21.6207 25.4516C21.0406 27.2457 19.8759 27.2259 18.5358 26.6609C18.2255 26.4874 17.9107 26.314 17.6004 26.1405C15.3968 24.5297 12.9415 23.2658 11.345 20.7877L11.3405 20.7927Z" fill="#FF5A2D"/>
<path d="M37.8509 13.9076C38.0656 13.8803 38.3208 13.8972 38.5401 13.904C39.3729 14.4574 39.4957 15.3552 39.6956 16.27C40.0026 17.6751 40.4605 23.1638 38.87 23.6925C38.8207 23.7054 38.7708 23.716 38.7205 23.7244C36.7561 24.0628 37.2114 21.597 37.263 20.4568C37.2847 19.8871 37.2881 19.3167 37.2732 18.7467C37.2577 18.24 37.0771 17.7753 37.0524 17.2939C37.0043 16.3589 36.5477 15.0793 37.0793 14.252C37.2483 13.9889 37.5824 13.9473 37.8509 13.9076Z" fill="#FF5A2D"/>
<path d="M2.76846 26.6113C2.85176 26.6158 2.935 26.6217 3.01809 26.6289C3.99729 26.7166 4.17437 27.761 4.5978 28.5199C4.94166 29.1329 5.43366 30.0203 5.90575 30.5358C6.98727 31.7164 8.12447 31.2577 7.90417 33.3565C7.46868 33.7518 7.44479 33.8007 6.88215 33.9243C6.83962 33.9282 6.79704 33.9316 6.75447 33.9348C4.8283 34.077 3.54738 31.9671 2.62641 30.5908C1.97817 29.6219 0.552002 26.6914 2.76846 26.6113Z" fill="#FF5A2D"/>
<path d="M18.8232 0.0256186C18.8662 0.0204603 18.9094 0.0159468 18.9526 0.0120285C19.9852 -0.0802248 22.4328 0.344438 22.4361 1.7633C22.4401 3.4687 20.2415 3.00609 19.1764 2.98134C18.664 2.96944 18.0897 3.0115 17.566 3.04052C16.6001 3.2525 14.4102 3.94817 14.177 2.42649C13.8398 0.226344 17.3473 0.217714 18.8232 0.0256186Z" fill="#FF5A2D"/>
<path d="M32.4455 5.23152C33.6514 5.12975 35.0832 6.6176 35.6797 7.5505C36.5367 8.8908 37.9518 10.2773 36.8538 11.9403L36.1722 11.9956C34.6848 11.6039 34.0496 9.58057 32.9849 8.50294C32.4354 7.94675 31.2675 7.44446 31.195 6.70286C31.0954 5.68287 31.5567 5.383 32.4455 5.23152Z" fill="#333333"/>
<path d="M23.9211 37.0745C24.4062 37.038 24.7875 37.1008 25.2387 37.2667C25.6517 37.8338 25.6087 38.1604 25.5438 38.8383C24.5489 40.2496 21.0028 40.0255 19.4616 39.9173C19.298 39.8937 19.1351 39.8661 18.9728 39.8347C17.6597 39.5664 17.5632 38.9249 17.8272 37.7593C18.064 37.5259 18.2466 37.3389 18.5899 37.2819C19.4571 37.1378 20.3724 37.3458 21.2605 37.3205C22.1819 37.2943 23.0054 37.1196 23.9211 37.0745Z" fill="#333333"/>
<path d="M31.9403 32.8422C32.8653 32.7827 33.0245 33.8734 33.1993 34.5538C32.7128 36.1317 29.2519 38.3102 27.616 38.46C26.6476 38.4444 26.0036 37.526 26.4482 36.647C26.9033 35.7475 28.1368 35.4644 28.9678 35.0358C29.9929 34.5071 30.8664 33.146 31.9403 32.8422Z" fill="#FF5A2D"/>
<path d="M11.1685 2.71359C11.6977 2.63329 11.9502 2.76666 12.465 2.91789C12.5758 3.04134 12.6891 3.21781 12.7848 3.35783C12.9255 4.80065 12.7262 4.91829 11.4569 5.35293C10.2306 5.77283 9.19802 6.35318 8.40366 7.40591C8.11582 7.78737 7.67223 8.24427 7.24552 8.4819C6.56981 8.51022 5.97377 7.88161 5.64648 7.34302C5.71869 7.06938 5.91176 6.56095 6.0081 6.26752C6.827 5.76068 7.42186 4.65056 8.19042 4.17848C8.95585 3.70834 10.3096 2.87632 11.1685 2.71359Z" fill="#00B0A8"/>
<path d="M9.39366 34.1497C10.4984 34.0341 11.08 34.8513 11.9292 35.42C13.1215 36.2186 14.2889 36.5046 15.6072 36.9415C15.9425 37.0864 15.9235 37.5698 15.8362 37.8436C15.6634 38.3858 15.7839 39.1192 15.1248 39.273C13.1112 39.1561 9.58394 37.3117 8.58203 35.4451C8.65296 34.6718 8.67327 34.4906 9.39366 34.1497Z" fill="#00B0A8"/>
<path d="M0.761828 16.1464C-0.144525 15.257 1.97638 10.6459 2.84295 9.90226C3.68779 9.17723 4.27069 9.39303 5.18671 9.96133C5.20903 10.2181 5.27834 10.6747 5.18656 10.905C4.86767 11.7049 4.29772 12.2006 3.93144 13.0168C3.50139 13.975 3.32657 15.1063 2.87057 16.0331C2.85311 16.0686 2.74931 16.1319 2.71041 16.1538C2.09097 16.0818 1.38485 16.1097 0.761828 16.1464Z" fill="#333333"/>
<path d="M1.61186 17.7188C2.00855 17.8136 2.18387 17.8733 2.51081 18.1171C3.07178 19.1336 2.44159 20.8127 2.49143 22.0095C2.52959 22.9248 2.79737 24.0388 2.61024 24.8931C-0.312689 27.8334 -0.527738 19.5454 0.724636 18.2267C1.03745 17.9335 1.2236 17.8578 1.61186 17.7188Z" fill="#00B0A8"/>
<path d="M1.60793 17.7188C2.00462 17.8136 2.17993 17.8733 2.50687 18.1171C2.30178 18.1971 0.904848 18.2651 0.720703 18.2267C1.03351 17.9335 1.21967 17.8578 1.60793 17.7188Z" fill="#00B0A8"/>
<path d="M24.5676 0.633113C25.1296 0.54081 26.2244 0.61496 26.782 0.812362C27.1962 0.957388 27.5339 1.25478 27.9238 1.44583C29.0322 1.98894 31.4409 2.84957 30.7678 4.54282C30.6228 4.90756 30.4332 5.02933 30.0873 5.18031C29.8552 5.21969 29.5628 5.18928 29.3579 5.07972C27.9337 4.31799 26.6651 3.30057 25.0746 2.89952C24.7218 2.81049 24.2866 2.56527 23.9634 2.38399C23.6478 1.63927 23.8077 0.973805 24.5676 0.633113Z" fill="#00B0A8"/>
<path d="M37.4376 25.961C37.6926 25.9417 37.803 25.967 38.0366 26.077C39.332 26.6871 38.3403 28.5752 37.9829 29.4774C37.6246 30.3817 36.1884 32.0909 35.3136 32.4012C35.1146 32.4323 34.7791 32.4675 34.6169 32.3338C32.8678 30.8928 35.103 29.7041 35.7073 28.5437C36.299 27.4072 35.8796 26.2845 37.4376 25.961Z" fill="#00B0A8"/>
<path d="M0.761719 16.1449C1.38474 16.1081 2.09086 16.0802 2.7103 16.1523C2.66179 16.1811 2.58517 16.2577 2.5496 16.3016C2.19686 16.7355 1.65998 16.6011 1.17916 16.4976C1.01773 16.3337 0.955429 16.2633 0.761719 16.1449Z" fill="#333333"/>
</svg>
